<?xml version="1.0" encoding="UTF-8"?>
<svg xmlns="http://www.w3.org/2000/svg" viewBox="0 0 523.4 575.2"><g fill="#0a2d82"><path d="M434.7 321.2h-54.6c-6.1 0-11 4.9-11 11s4.9 11 11 11h54.6c6.1 0 11-4.9 11-11s-4.9-11-11-11z" style="fill: #ffffff;"/><path d="M480.2 260.5l-36.7-35.1-4.1-9h25.1c6.1 0 11-4.9 11-11s-4.9-11-11-11h-35.1l-29.3-64.8c-7-15.5-22.5-25.5-39.5-25.5H163.9c-17.1 0-32.6 10-39.5 25.5l-17.6 39.1-11.6 25.7H60c-6.1 0-11 4.9-11 11s4.9 11 11 11h25.2l-4 8.8-36.9 35.2c-12.8 12.3-20.2 29.6-20.2 47.2v63.9c0 6.9 2.4 13.7 6.9 19.1l11.3 13.5c3.1 3.7 7.2 6.6 11.7 8.5v32.8c0 20.2 16.5 36.7 36.7 36.7h40.6c20.2 0 36.7-16.5 36.7-36.7 0-6.1-4.9-11-11-11s-11 4.9-11 11c0 8.1-6.6 14.7-14.7 14.7H90.7c-8.1 0-14.7-6.6-14.7-14.7v-30.6h372.7v30.6c0 8.1-6.6 14.7-14.7 14.7h-40.7c-8.1 0-14.7-6.6-14.7-14.7 0-6.1-4.9-11-11-11s-11 4.9-11 11c0 20.2 16.5 36.7 36.7 36.7H434c20.2 0 36.7-16.5 36.7-36.7v-32.8c4.5-1.8 8.5-4.7 11.6-8.5l11.3-13.5c4.4-5.3 6.8-12.1 6.8-19v-63.9c0-17.7-7.4-34.9-20.2-47.2zm-1.8 111.2c0 1.9-.6 3.6-1.7 4.9l-11.3 13.5-.1.1c-1.3 1.7-3.5 2.6-5.8 2.6H65.1c-2.2 0-4.4-1-5.9-2.8L48 376.7c-1.2-1.4-1.8-3.2-1.8-5v-63.9c0-11.7 4.9-23.2 13.4-31.3L98 239.8l.5-.5c.1-.1.2-.2.2-.3.3-.4.6-.7.8-1.1.1-.1.1-.2.2-.3.2-.4.5-.8.6-1.2 0 0 0-.1.1-.1l.1-.1v-.1l11.5-25.4c.3-.5.5-1 .7-1.5l14.2-31.4 17.6-39.1c3.4-7.6 11-12.5 19.5-12.5h196.8c8.4 0 16 4.9 19.5 12.5l32 70.9c.1.2.2.5.3.7l4.7 10.5h-30c-5-22.8-25.4-40-49.8-40s-44.7 17.2-49.8 40H164.8c-6.1 0-11 4.9-11 11s4.9 11 11 11h265l35.2 33.7c8.5 8.1 13.4 19.5 13.4 31.3v63.9zM364.3 220.8h-53.7c4.3-10.6 14.7-18 26.8-18s22.6 7.4 26.9 18z" style="fill: #ffffff;"/><path d="M144.6 321.2H89.9c-6.1 0-11 4.9-11 11s4.9 11 11 11h54.7c6.1 0 11-4.9 11-11s-4.9-11-11-11z" style="fill: #ffffff;"/></g></svg>
