<?xml version="1.0" encoding="UTF-8"?>
<svg xmlns="http://www.w3.org/2000/svg" viewBox="0 0 523.4 575.2"><path fill="#0a2d82" d="M369.5 64.6c-.5-.1-1-.1-1.6-.1-40.5 0-78.5 17.4-106.2 48.2C234 81.9 196 64.5 155.5 64.5 74.4 64.5 8.4 134.6 8.4 220.8c0 41 13.4 81.9 39.7 121.5 20.7 31.1 49.5 61.5 85.6 90.4 61 48.8 121 75.9 123.5 77.1 1.5.7 3 1 4.5 1 4.2 0 8.2-2.4 10-6.5 2.5-5.5 0-12.1-5.5-14.5-.6-.3-60.3-27.4-119.1-74.5-34.2-27.4-61.4-56.1-80.8-85.3-23.8-36-35.9-72.7-35.9-109.2 0-74.1 56.1-134.3 125.1-134.3 38 0 73.5 18.3 97.4 50.1 2.1 2.8 5.3 4.4 8.8 4.4 3.5 0 6.7-1.6 8.8-4.4 23.6-31.5 58.5-49.6 96-50.1.4 0 .8.1 1.3.1 69 0 125.1 60.2 125.1 134.3 0 47.4-20.1 94.6-59.9 140.5-36.1 41.6-81.9 74.3-113.9 94.3-5.2 3.2-6.7 10-3.5 15.2 2.1 3.3 5.7 5.2 9.3 5.2 2 0 4-.5 5.8-1.7 33.3-20.8 81-54.9 118.9-98.6 43.3-49.9 65.3-102.1 65.3-154.9 0-85.6-65.1-155.3-145.4-156.3z" style="fill: #d3d62e;"/></svg>
