<?xml version="1.0" encoding="utf-8"?>
<!-- Generator: Adobe Illustrator 25.4.1, SVG Export Plug-In . SVG Version: 6.00 Build 0)  -->
<svg version="1.1" id="Calque_1" xmlns="http://www.w3.org/2000/svg" xmlns:xlink="http://www.w3.org/1999/xlink" x="0px" y="0px"
	 viewBox="0 0 226.78 226.77" style="enable-background:new 0 0 226.78 226.77;" xml:space="preserve">
<style type="text/css">
	.st0{fill:none;}
	.st1{fill:#0A2D82;}
	.st2{fill:#D3D62E;}
	.st3{fill:#FFFFFF;}
</style>
<g>
	<g>
		
			<rect x="0" y="0" transform="matrix(-1.836970e-16 1 -1 -1.836970e-16 226.7747 -1.740577e-03)" class="st0" width="226.77" height="226.78"/>
		<rect x="56.69" y="56.69" class="st0" width="113.39" height="113.39"/>
	</g>
	<g>
		<g>
			<path class="st1" d="M170.08,64.17v98.45c-18.08,4.88-37.08,7.47-56.7,7.47c-19.62,0-38.62-2.59-56.69-7.47V64.17
				c18.07-4.87,37.07-7.47,56.69-7.47C133,56.69,152,59.3,170.08,64.17"/>
			<path class="st2" d="M125.17,97.05c0,6.29-5.1,11.39-11.38,11.39c-6.28,0-11.38-5.1-11.38-11.39c0-6.29,5.1-11.39,11.38-11.39
				C120.07,85.66,125.17,90.76,125.17,97.05"/>
			<path class="st2" d="M139.15,97.05h-6.98c-0.6,0.1-1.11,0.55-1.25,1.14c-0.59,8.96-8.04,16.06-17.15,16.06
				c-9.49,0-17.2-7.69-17.2-17.2c0-9,6.91-16.38,15.72-17.13v-0.01c0.81,0,1.47-0.71,1.47-1.53v-6.45c0-0.82-0.66-1.48-1.47-1.48
				v-0.01C98.27,71.2,87.13,82.83,87.13,97.05c0,14.72,11.93,26.66,26.65,26.66c14.24,0,25.87-11.18,26.61-25.24
				C140.36,97.75,139.84,97.16,139.15,97.05"/>
			<path class="st3" d="M85.76,146.87c0-1.09,0-2.44,0.03-3.64h-0.03c-0.57,0.67-1.2,1.34-2.12,2.18l-2.75,2.69h-0.24l-2.71-2.69
				c-0.88-0.84-1.55-1.51-2.08-2.18h-0.07c0.04,1.2,0.07,2.54,0.07,3.64v6.8h-4.87v-20.74h0.64l5.39,4.87
				c0.85,0.77,2.64,2.5,3.91,3.91H81c1.2-1.31,3.1-3.14,3.95-3.91l5.22-4.87h0.63v20.74h-5.04V146.87z"/>
			<path class="st3" d="M100.67,147h4.68l-0.24-0.49c-0.61-1.26-1.34-2.86-2.08-4.86h-0.04c-0.74,2.01-1.48,3.6-2.08,4.86
				L100.67,147z M107.22,150.96h-8.45l-1.31,2.71h-5.43l10.54-20.74h1.07l10.53,20.74h-5.61L107.22,150.96z"/>
			<path class="st3" d="M131.72,151.62c-1.9,1.66-4.19,2.65-7.05,2.65c-6.35,0-10.5-4.66-10.5-10.68c0-6.42,4.48-10.66,10.26-10.66
				c3.07,0,5.39,1.06,7.23,2.65l-2.79,3.55c-1.07-0.99-2.43-1.66-4.16-1.66c-3.31,0-5.32,2.62-5.32,6.11c0,3.59,2.01,6.13,5.42,6.13
				c1.66,0,3.07-0.56,4.15-1.62L131.72,151.62z"/>
			<rect x="134.19" y="133.54" class="st3" width="5.04" height="20.14"/>
			<polygon class="st3" points="148.5,138.08 148.5,142.81 156.18,142.81 156.18,147.07 148.5,147.07 148.5,153.68 143.46,153.68 
				143.46,133.54 158.33,133.54 157.34,138.08 			"/>
		</g>
	</g>
</g>
</svg>
