<?xml version="1.0" encoding="UTF-8"?>
<svg xmlns="http://www.w3.org/2000/svg" viewBox="0 0 523.4 575.2"><path fill="#0a2d82" d="M389.7 538.4H167c-6.1 0-11-4.9-11-11V287.7H50.4c-2.7 0-5 2.4-5 5.2v218.3c0 2.8 2.3 5.2 5 5.2h22.4c6.1 0 11 4.9 11 11s-4.9 11-11 11H50.4c-14.9 0-27-12.2-27-27.2V292.9c0-15 12.1-27.2 27-27.2H156v-6.1c0-1.5.3-3.1 1-4.5 23.3-52 39-91.4 51.7-123 10-25 17.9-44.7 25.7-60.9 5.8-12.2 15.5-22.5 27.3-28.7 11.2-6 23.6-8 34.2-5.6 15.8 3.6 25.7 16.5 25.7 33.6v149.8h116.5c24.2 0 40.4 5.4 50.8 17.1 10.2 11.4 13.9 27.9 11.3 50.6 0 .1 0 .3-.1.4l-28.4 187.2c-.1.5-.2.9-.3 1.4-5.6 19.5-15.5 34.8-29.5 45.4-14.2 10.6-31.7 16-52.2 16zm-211.7-22h211.7c30.8 0 51.6-15.5 60.2-44.9l28.3-186.3c1.7-15.7-.2-26.9-5.9-33.2-5.9-6.5-17.1-9.7-34.4-9.7H310.4c-6.1 0-11-4.9-11-11V70.5c0-7-2.7-10.8-8.5-12.1-15.3-3.5-31.2 10.8-36.7 22.4-7.4 15.5-15.2 35-25.1 59.6-12.6 31.3-28.1 70.3-51 121.6v254.4z" style="fill: #ffffff;"/></svg>
