<?xml version="1.0" encoding="UTF-8"?>
<svg xmlns="http://www.w3.org/2000/svg" viewBox="0 0 523.4 523.4"><g fill="#0a2d82"><path d="M246.6 173.2c17.5-2 40.5 2.2 62.9 11.4 13.1 5.4 25.5 12.3 35.8 20.1 2 1.5 4.3 2.2 6.6 2.2 3.3 0 6.6-1.5 8.8-4.4 3.7-4.8 2.7-11.7-2.2-15.4-11.8-8.9-25.8-16.8-40.6-22.9-25.7-10.6-52.6-15.3-73.7-13-6 .7-10.4 6.1-9.7 12.2.6 6.2 6.1 10.5 12.1 9.8z" style="fill: #ffffff;"/><path d="M510.3 183.1c-.3-12.6-5.4-24.2-14.5-32.9s-21-13.3-33.5-13c-22 .5-40.7 13.7-49.4 32.4-6.7-7.8-14.3-15.2-22.7-22.1-37.8-30.9-88-48-141.3-48-4.2 0-8.4.1-12.5.3-6.1.3-10.7 5.5-10.4 11.5.3 6.1 5.5 10.7 11.5 10.4 3.8-.2 7.7-.3 11.5-.3 98.7 0 179 64.7 179 144.3 0 41.2-22 80.6-60.5 108-2.9 2.1-4.6 5.4-4.6 9v51.8c0 3.2-2.6 5.8-5.8 5.8h-42.9c-3.2 0-5.8-2.6-5.8-5.8v-18.6c0-3.3-1.5-6.5-4.1-8.5-2.6-2.1-6-2.9-9.2-2.2-15.1 3.2-30.7 4.9-46.1 4.9-16.7 0-33.1-1.9-48.8-5.5-3.3-.8-6.7 0-9.3 2.1-2.6 2.1-4.2 5.3-4.2 8.6v19.3c0 3.2-2.6 5.8-5.8 5.8H138c-3.2 0-5.8-2.6-5.8-5.8v-53.9c0-3.5-1.7-6.8-4.5-8.8-20.7-15.2-36.7-34.5-46.5-55.7-1.8-3.9-5.7-6.4-10-6.4H40.8c-3.2 0-5.8-2.6-5.8-5.8v-61.8c0-3.2 2.6-5.8 5.8-5.8h24.7c4.7 0 9-3 10.4-7.6 9.3-28.2 28.9-53.3 56.6-72.6 3-2.1 4.7-5.4 4.7-9V84.1c26.1 5.1 45.9 28.2 45.9 55.8 0 6.1 4.9 11 11 11s11-4.9 11-11c0-43.5-35.4-78.9-78.9-78.9-6.1 0-11 4.9-11 11v69.6c-26.8 19.8-46.5 44.8-57.5 72.8h-17c-15.3 0-27.8 12.5-27.8 27.8V304c0 15.3 12.5 27.8 27.8 27.8h23.5c10.7 20.5 26.3 39.1 45.8 54.4v48.5c0 15.3 12.5 27.8 27.8 27.8h42.9c15.3 0 27.8-12.5 27.8-27.8v-5.9c25.2 4.3 51.8 4.5 77.7.5v5.4c0 15.3 12.5 27.8 27.8 27.8h43c15.3 0 27.8-12.5 27.8-27.8v-46.2c41.4-31.5 65.1-75.9 65.1-122.6 0-25.7-6.9-50.4-20.1-72.8 0-18.3 14.6-33.5 33.1-33.9 6.6-.2 13 2.3 17.8 6.9 4.8 4.6 7.5 10.8 7.7 17.5.1 4.7-1.6 9.2-4.9 12.6-3.3 3.4-7.7 5.4-12.5 5.5-6.1.2-10.9 5.2-10.7 11.3.2 6.1 5.2 10.9 11.3 10.7 10.6-.3 20.5-4.6 27.8-12.3 7.3-7.7 11.2-17.7 10.9-28.3z" style="fill: #ffffff;"/><ellipse cx="155.8" cy="214.3" rx="13.9" ry="13.9" transform="rotate(-45.001 155.798 214.303)" style="fill: #ffffff;"/></g></svg>
